Coordinates
nRows=154
nColumns=2
inDegrees=yes
endheader
time	ankle_angle_r	
2.37485	  9.552067	
2.43734	  9.540211	
2.49984	  9.555783	
2.56234	  9.562524	
2.62483	  9.558085	
2.68733	  9.537932	
2.74982	  9.495750	
2.81232	  9.479971	
2.87482	  9.489939	
2.93731	  9.525393	
2.99981	  9.582454	
3.0623	  9.588199	
3.1248	  9.558422	
3.1873	  9.530142	
3.24979	  9.508356	
3.31229	  9.517364	
3.37478	  9.513034	
3.43728	  9.531563	
3.49978	  9.594853	
3.56227	  9.584401	
3.62477	  9.556380	
3.68726	  9.569997	
3.74976	  9.551875	
3.81226	  9.540231	
3.87475	  9.544488	
3.93725	  9.548703	
3.99974	  9.573844	
4.06224	  9.596197	
4.12474	  9.624601	
4.18723	  9.597738	
4.24973	  9.503278	
4.31222	  9.487708	
4.37472	  9.528685	
4.43722	  9.550056	
4.49971	  9.586726	
4.56221	  9.622957	
4.6247	  9.627990	
4.6872	  9.570491	
4.7497	  9.496803	
4.81219	  9.492716	
4.87469	  9.496301	
4.93718	  9.498349	
4.99968	  9.543248	
5.06218	  9.583692	
5.12467	  9.617093	
5.18717	  9.608588	
5.24966	  9.545171	
5.31216	  9.521407	
5.37466	  9.534829	
5.43715	  9.552244	
5.49965	  9.564807	
5.56214	  9.580085	
5.62464	  9.620272	
5.68714	  9.586612	
5.74963	  9.496518	
5.81213	  9.472957	
5.87462	  9.464555	
5.93712	  9.482754	
5.99962	  9.548520	
6.06211	  9.576880	
6.12461	  9.600709	
6.1871	  9.605667	
6.2496	  9.549687	
6.3121	  9.513823	
6.37459	  9.501277	
6.43709	  9.500087	
6.49958	  9.539448	
6.56208	  9.574458	
6.62458	  9.565873	
6.68707	  9.541998	
6.74957	  9.549861	
6.81206	  9.558248	
6.87456	  9.535567	
6.93706	  9.561414	
6.99955	  9.623663	
7.06205	  9.621711	
7.12454	  9.576046	
7.18704	  9.530346	
7.24954	  9.500377	
7.31203	  9.507763	
7.37453	  9.517486	
7.43702	  9.522045	
7.49952	  9.550837	
7.56202	  9.578644	
7.62451	  9.576917	
7.68701	  9.549529	
7.7495	  9.529979	
7.812	  9.532475	
7.8745	  9.527129	
7.93699	  9.529685	
7.99949	  9.555098	
8.06198	  9.572739	
8.12448	  9.575236	
8.18698	  9.557699	
8.24947	  9.529750	
8.31197	  9.494457	
8.37446	  9.469941	
8.43696	  9.521272	
8.49946	  9.577153	
8.56195	  9.576939	
8.62445	  9.574961	
8.68694	  9.520922	
8.74944	  9.456392	
8.81194	  9.474978	
8.87443	  9.513511	
8.93693	  9.550903	
8.99942	  9.578269	
9.06192	  9.579207	
9.12442	  9.566744	
9.18691	  9.534818	
9.24941	  9.525030	
9.3119	  9.533336	
9.3744	  9.553097	
9.4369	  9.597614	
9.49939	  9.589508	
9.56189	  9.562874	
9.62438	  9.569440	
9.68688	  9.536165	
9.74938	  9.499460	
9.81187	  9.500883	
9.87437	  9.532425	
9.93686	  9.596395	
9.99936	  9.600017	
10.0619	  9.566170	
10.1244	  9.572405	
10.1868	  9.545242	
10.2493	  9.489013	
10.3118	  9.463108	
10.3743	  9.503386	
10.4368	  9.588623	
10.4993	  9.600979	
10.5618	  9.585602	
10.6243	  9.589980	
10.6868	  9.539595	
10.7493	  9.485739	
10.8118	  9.464809	
10.8743	  9.503265	
10.9368	  9.593127	
10.9993	  9.588409	
11.0618	  9.527154	
11.1243	  9.516948	
11.1868	  9.529122	
11.2493	  9.560748	
11.3118	  9.580821	
11.3743	  9.595059	
11.4368	  9.632592	
11.4993	  9.641609	
11.5618	  9.639585	
11.6243	  9.616374	
11.6868	  9.565275	
11.7492	  9.570205	
11.8117	  9.571402	
11.8742	  9.571064	
11.9367	  9.704498	
